<!DOCTYPE svg PUBLIC "-//W3C//DTD SVG 1.1//EN" "http://www.w3.org/Graphics/SVG/1.1/DTD/svg11.dtd">
<!-- Uploaded to: SVG Repo, www.svgrepo.com, Transformed by: SVG Repo Mixer Tools -->
<svg fill="#FFDB70" width="800px" height="800px" viewBox="0 0 512 512" version="1.1" xml:space="preserve" xmlns="http://www.w3.org/2000/svg" xmlns:xlink="http://www.w3.org/1999/xlink" stroke="#FFDB70">
<g id="SVGRepo_bgCarrier" stroke-width="0"/>
<g id="SVGRepo_tracerCarrier" stroke-linecap="round" stroke-linejoin="round"/>
<g id="SVGRepo_iconCarrier"> <g id="_x35_07_x2C__Board_x2C__chip_x2C__circuit_x2C__network_x2C__electronic"> <g> <path d="M199.572,189.375h0.202h0.202c1.344-0.045,2.553-0.627,3.425-1.499 c0.94-0.918,1.5-2.216,1.5-3.628c0-1.41-0.583-2.709-1.5-3.627c-0.917-0.917-2.216-1.5-3.627-1.5s-2.708,0.583-3.627,1.5 c-0.918,0.918-1.499,2.217-1.499,3.627c0,1.412,0.581,2.71,1.499,3.628C197.02,188.748,198.229,189.33,199.572,189.375 M238.929,169.563c-0.917-0.918-2.216-1.5-3.625-1.5c-1.411,0-2.709,0.582-3.627,1.5c-0.941,0.918-1.5,2.194-1.5,3.627 c0,1.41,0.583,2.709,1.5,3.626c0.895,0.918,2.17,1.478,3.559,1.501l0,0h0.068h0.066l0,0c1.388-0.023,2.641-0.583,3.559-1.501 c0.918-0.917,1.5-2.216,1.5-3.626S239.847,170.48,238.929,169.563z M235.304,162.555c2.932,0,5.596,1.188,7.521,3.113 c1.926,1.925,3.113,4.588,3.113,7.521s-1.187,5.597-3.113,7.521c-1.299,1.299-2.933,2.262-4.768,2.754v65.797v26.037 c0,1.499-1.231,2.73-2.753,2.73c-1.523,0-2.755-1.231-2.755-2.73v-24.896l-16.633-16.609c-0.493-0.517-0.806-1.188-0.806-1.948 v-35.193c0-1.522,1.253-2.753,2.753-2.753c1.521,0,2.753,1.23,2.753,2.753v34.051l11.933,11.91v-59.147 c-1.835-0.492-3.469-1.455-4.768-2.754c-1.925-1.925-3.113-4.588-3.113-7.521s1.188-5.597,3.113-7.521 C229.706,163.742,232.37,162.555,235.304,162.555z M299.487,334.536c0.917,0.938,2.216,1.521,3.627,1.521 c1.41,0,2.709-0.583,3.627-1.501c0.918-0.939,1.501-2.216,1.501-3.627c0-1.432-0.583-2.73-1.501-3.648 c-0.874-0.873-2.081-1.434-3.426-1.5l-0.201,0.023l-0.202-0.023c-1.275,0.046-2.439,0.583-3.313,1.389l-0.112,0.111 c-0.918,0.941-1.499,2.217-1.499,3.648C297.988,332.341,298.569,333.617,299.487,334.536z M303.114,341.565 c-2.933,0-5.596-1.209-7.522-3.136c-1.926-1.902-3.111-4.566-3.111-7.5c0-2.955,1.186-5.618,3.111-7.543l0.181-0.156 c1.275-1.209,2.843-2.105,4.588-2.598v-19.544c0-0.762,0.314-1.434,0.806-1.948l15.493-15.47l-30.224-30.223 c-0.537-0.538-0.806-1.254-0.806-1.948v-11.619c0-1.521,1.231-2.753,2.753-2.753c1.5,0,2.732,1.231,2.732,2.753v10.479 l41.438,41.415c0.493,0.493,0.808,1.188,0.808,1.948v9.537c0,1.522-1.256,2.754-2.756,2.754c-1.521,0-2.753-1.231-2.753-2.754 v-8.395l-7.298-7.299l-14.688,14.664v18.402c1.838,0.492,3.471,1.455,4.77,2.754c1.925,1.925,3.111,4.588,3.111,7.543 c0,2.934-1.187,5.598-3.111,7.5C308.712,340.356,306.048,341.565,303.114,341.565z M263.958,345.595 c0.941,0.94,2.217,1.522,3.628,1.522c1.365,0,2.597-0.538,3.515-1.388l0.112-0.135c0.94-0.918,1.521-2.194,1.521-3.628 c0-1.408-0.581-2.686-1.521-3.627c-0.896-0.895-2.173-1.477-3.561-1.498l0,0h-0.066h-0.067l0,0 c-1.388,0.021-2.643,0.604-3.561,1.498c-0.917,0.941-1.5,2.219-1.5,3.627C262.458,343.4,263.041,344.677,263.958,345.595z M267.586,352.624c-2.933,0-5.598-1.209-7.523-3.134c-1.901-1.902-3.11-4.568-3.11-7.523c0-2.932,1.209-5.596,3.11-7.499 c1.299-1.299,2.933-2.283,4.77-2.776v-91.811c0-1.521,1.23-2.753,2.754-2.753c1.521,0,2.753,1.231,2.753,2.753v24.872 l16.635,16.636c0.491,0.49,0.806,1.186,0.806,1.947v35.191c0,1.5-1.231,2.755-2.753,2.755c-1.523,0-2.755-1.255-2.755-2.755 v-34.051l-11.933-11.933v59.147c1.835,0.493,3.471,1.478,4.77,2.755c1.925,1.925,3.111,4.589,3.111,7.521 c0,2.955-1.187,5.621-3.111,7.523l-0.18,0.179C273.025,351.504,270.429,352.624,267.586,352.624z M485.998,259.021L287.264,60.289 l-13.298,13.298l182.056,182.056c1.074,1.074,1.074,2.82,0,3.896l-82.186,82.161l14.73,14.73L485.998,259.021z M450.178,257.59 L268.122,75.535l-0.043-0.066l-16.635-16.611l-95.034,95.012v70.521l39.491,39.491c0.761,0.761,1.365,1.68,1.769,2.687 c0.425,1.03,0.626,2.104,0.626,3.134v5.598c0.023,2.26-0.917,4.298-2.395,5.798c-1.521,1.521-3.604,2.439-5.843,2.439 c-2.26,0-4.32-0.918-5.821-2.417c-1.5-1.522-2.441-3.561-2.441-5.82v-2.172l-39.491-39.514c-0.739-0.738-1.344-1.656-1.769-2.664 c-0.404-0.986-0.626-2.06-0.626-3.135v-57.423L52.709,257.59l160.632,160.63h76.207l56.932-56.931v-70.543l-39.446-39.447 c-0.785-0.761-1.366-1.679-1.792-2.664l-0.044-0.09c-0.404-0.984-0.605-2.059-0.605-3.089v-5.575c0-2.261,0.917-4.32,2.418-5.82 c1.5-1.5,3.561-2.44,5.82-2.44c2.262,0,4.322,0.94,5.82,2.418c1.5,1.522,2.441,3.582,2.441,5.843v2.172l39.268,39.29 c0.762,0.738,1.41,1.612,1.858,2.597c0.493,1.074,0.762,2.239,0.762,3.426v57.424l4.925-4.926l0.045-0.045l0.045-0.067 L450.178,257.59z M145.417,95.215c0-1.523,1.232-2.754,2.755-2.754c1.499,0,2.73,1.23,2.73,2.754v131.459l41.104,41.08 c0.537,0.537,0.805,1.254,0.805,1.947v5.598c0,1.499-1.23,2.73-2.753,2.73c-1.521,0-2.753-1.231-2.753-2.73v-4.456l-41.081-41.081 c-0.516-0.514-0.807-1.187-0.807-1.947V95.215z M357.494,414.457c0,1.523-1.255,2.754-2.754,2.754 c-1.522,0-2.754-1.23-2.754-2.754V288.484l-41.104-41.08c-0.537-0.538-0.806-1.232-0.806-1.948v-5.575 c0-1.521,1.231-2.753,2.753-2.753c1.523,0,2.755,1.231,2.755,2.753v4.434l40.945,40.969c0.583,0.492,0.964,1.254,0.964,2.082 V414.457z M93.725,317.23c1.074,1.074,1.074,2.82,0,3.895c-1.076,1.075-2.822,1.075-3.896,0l-63.022-63.021 c-1.074-1.074-1.074-2.819,0-3.896l36.469-36.469c1.076-1.074,2.821-1.074,3.896,0c1.076,1.053,1.076,2.821,0,3.895 l-34.521,34.521L93.725,317.23z M133.351,443.068c-1.523,0-2.755-1.253-2.755-2.753c0-1.523,1.232-2.753,2.755-2.753h165.555 c1.521,0,2.753,1.229,2.753,2.753c0,1.5-1.231,2.753-2.753,2.753H133.351z M230.289,453.143c-1.523,0-2.755-1.253-2.755-2.753 c0-1.521,1.232-2.753,2.755-2.753h114.579c1.5,0,2.754,1.231,2.754,2.753c0,1.5-1.254,2.753-2.754,2.753H230.289z M356.576,453.143c-1.5,0-2.732-1.253-2.732-2.753c0-1.521,1.232-2.753,2.732-2.753h14.328c1.522,0,2.752,1.231,2.752,2.753 c0,1.5-1.229,2.753-2.752,2.753H356.576z M126.813,452.83c-1.5,0-2.753-1.231-2.753-2.755c0-1.521,1.253-2.753,2.753-2.753h54.291 c1.521,0,2.753,1.231,2.753,2.753c0,1.523-1.232,2.755-2.753,2.755H126.813z M169.551,211.896c0-1.521,1.23-2.753,2.73-2.753 c1.523,0,2.753,1.231,2.753,2.753v8.418l7.321,7.299l14.664-14.687v-18.402c-1.835-0.493-3.471-1.454-4.769-2.753 c-1.925-1.926-3.111-4.591-3.111-7.523c0-2.932,1.186-5.596,3.111-7.521c1.927-1.926,4.59-3.111,7.522-3.111 c2.934,0,5.598,1.186,7.522,3.111c1.925,1.926,3.111,4.59,3.111,7.521c0,2.911-1.186,5.576-3.111,7.5 c-1.298,1.322-2.932,2.283-4.768,2.776v19.544c0,0.762-0.314,1.455-0.807,1.948l-15.491,15.491l30.245,30.224 c0.514,0.537,0.783,1.231,0.783,1.948l0.023,11.619c0,1.499-1.253,2.73-2.753,2.73c-1.523,0-2.753-1.231-2.753-2.73v-10.478 l-41.417-41.44c-0.514-0.492-0.806-1.186-0.806-1.924V211.896z" style="fill-rule:evenodd;clip-rule:evenodd;"/> </g> </g> <g id="Layer_1"/> </g>
</svg>